<svg xmlns="http://www.w3.org/2000/svg" width="24" height="24" viewBox="0 0 24 24">
  <g fill="none" fill-rule="evenodd">
    <path stroke="#000" stroke-width="2" d="M5.82857143,1 C3.16962274,1 1,3.16962067 1,5.82856374 L1,18.1714294 C1,20.8303784 3.16962186,23 5.82857143,23 L18.1714286,23 C20.8303781,23 23,20.8303784 23,18.1714294 L23,5.82856374 C23,3.16962067 20.8303773,1 18.1714286,1 L5.82857143,1 Z"/>
    <path fill="#000" fill-rule="nonzero" d="M15.0455842,23.5551723 L15.0455842,15.4990923 L17.5605242,15.4990923 L17.9371007,12.359495 L15.0455842,12.359495 L15.0455842,10.3550605 C15.0455842,9.44607465 15.280344,8.82663077 16.4926563,8.82663077 L18.0389025,8.82590429 L18.0389025,6.01782327 C17.7714851,5.97956208 16.8536173,5.89407979 15.7857494,5.89407979 C13.556395,5.89407979 12.0301188,7.35720721 12.0301188,10.0441278 L12.0301188,12.359495 L9.50872236,12.359495 L9.50872236,15.4990923 L12.0301188,15.4990923 L12.0301188,23.5551723 L15.0455842,23.5551723 Z"/>
  </g>
</svg>
