<svg xmlns="http://www.w3.org/2000/svg" width="24" height="24" viewBox="0 0 24 24">
  <path d="M5.82857143,3.89783388e-14 C2.61733714,3.89783388e-14 0,2.61733677 0,5.82856374 L0,18.1714294 C0,21.3826632 2.61733714,24 5.82857143,24 L18.1714286,24 C21.3826629,24 24,21.3826632 24,18.1714294 L24,5.82856374 C24,2.61733677 21.3826629,0 18.1714286,0 L5.82857143,0 Z M5.82857143,2.05714256 L18.1714286,2.05714256 C20.2785943,2.05714256 21.9428571,3.72140518 21.9428571,5.82856374 L21.9428571,18.1714294 C21.9428571,20.2785948 20.2785943,21.9428574 18.1714286,21.9428574 L5.82857143,21.9428574 C3.72140571,21.9428574 2.05714286,20.2785948 2.05714286,18.1714294 L2.05714286,5.82856374 C2.05714286,3.72140518 3.72140571,2.05714256 5.82857143,2.05714256 Z M18.8571429,4.11427827 C18.0997029,4.11427827 17.4857143,4.72826675 17.4857143,5.48570664 C17.4857143,6.24311225 18.0997029,6.85713502 18.8571429,6.85713502 C19.6145486,6.85713502 20.2285714,6.24311225 20.2285714,5.48570664 C20.2285714,4.72826675 19.6145486,4.11427827 18.8571429,4.11427827 Z M12,6.17142083 C8.79315429,6.17142083 6.17142857,8.79314617 6.17142857,12.0000017 C6.17142857,15.206847 8.79315429,17.8285723 12,17.8285723 C15.2068457,17.8285723 17.8285714,15.206847 17.8285714,12.0000017 C17.8285714,8.79314617 15.2068457,6.17142083 12,6.17142083 Z M12,8.2285634 C14.0950971,8.2285634 15.7714286,9.90492887 15.7714286,12.0000017 C15.7714286,14.0950643 14.0950971,15.7714297 12,15.7714297 C9.90490286,15.7714297 8.22857143,14.0950643 8.22857143,12.0000017 C8.22857143,9.90492887 9.90490286,8.2285634 12,8.2285634 Z"/>
</svg>
