<svg xmlns="http://www.w3.org/2000/svg" width="1801" height="421" viewBox="0 0 1801 421">
  <g fill="none" fill-rule="evenodd" opacity=".1">
    <path stroke="#FFB6FF" stroke-width="20" d="M-17,64.5 C3.12220603,96.8333333 23.4262389,113 43.9120988,113 C64.3979586,113 85.0050368,96.8333333 105.733333,64.5 C125.855539,32.1666667 146.159572,16 166.645432,16 C187.131292,16 207.73837,32.1666667 228.466667,64.5 C248.588873,96.8333333 268.892906,113 289.378765,113 C309.864625,113 330.471703,96.8333333 351.2,64.5 C371.322206,32.1666667 391.626239,16 412.112099,16 C432.597959,16 453.205037,32.1666667 473.933333,64.5 C494.055539,96.8333333 514.359572,113 534.845432,113 C555.331292,113 575.93837,96.8333333 596.666667,64.5 C616.788873,32.1666667 637.092906,16 657.578765,16 C678.064625,16 698.671703,32.1666667 719.4,64.5 C739.522206,96.8333333 759.826239,113 780.312099,113 C800.797959,113 821.405037,96.8333333 842.133333,64.5 C862.255539,32.1666667 882.559572,16 903.045432,16 C923.531292,16 944.13837,32.1666667 964.866667,64.5 C984.988873,96.8333333 1005.29291,113 1025.77877,113 C1046.26463,113 1066.8717,96.8333333 1087.6,64.5 C1107.72221,32.1666667 1128.02624,16 1148.5121,16 C1168.99796,16 1189.60504,32.1666667 1210.33333,64.5 C1230.45554,96.8333333 1250.75957,113 1271.24543,113 C1291.73129,113 1312.33837,96.8333333 1333.06667,64.5 C1353.18887,32.1666667 1373.49291,16 1393.97877,16 C1414.46463,16 1435.0717,32.1666667 1455.8,64.5 C1475.92221,96.8333333 1496.22624,113 1516.7121,113 C1537.19796,113 1557.80504,96.8333333 1578.53333,64.5 C1598.65554,32.1666667 1618.95957,16 1639.44543,16 C1659.93129,16 1680.53837,32.1666667 1701.26667,64.5 C1721.38887,96.8333333 1741.69291,113 1762.17877,113 C1782.66463,113 1803.2717,96.8333333 1824,64.5" transform="matrix(1 0 0 -1 0 129)"/>
    <path stroke="#FFB6FF" stroke-width="20" d="M-17,211.5 C3.12220603,243.833333 23.4262389,260 43.9120988,260 C64.3979586,260 85.0050368,243.833333 105.733333,211.5 C125.855539,179.166667 146.159572,163 166.645432,163 C187.131292,163 207.73837,179.166667 228.466667,211.5 C248.588873,243.833333 268.892906,260 289.378765,260 C309.864625,260 330.471703,243.833333 351.2,211.5 C371.322206,179.166667 391.626239,163 412.112099,163 C432.597959,163 453.205037,179.166667 473.933333,211.5 C494.055539,243.833333 514.359572,260 534.845432,260 C555.331292,260 575.93837,243.833333 596.666667,211.5 C616.788873,179.166667 637.092906,163 657.578765,163 C678.064625,163 698.671703,179.166667 719.4,211.5 C739.522206,243.833333 759.826239,260 780.312099,260 C800.797959,260 821.405037,243.833333 842.133333,211.5 C862.255539,179.166667 882.559572,163 903.045432,163 C923.531292,163 944.13837,179.166667 964.866667,211.5 C984.988873,243.833333 1005.29291,260 1025.77877,260 C1046.26463,260 1066.8717,243.833333 1087.6,211.5 C1107.72221,179.166667 1128.02624,163 1148.5121,163 C1168.99796,163 1189.60504,179.166667 1210.33333,211.5 C1230.45554,243.833333 1250.75957,260 1271.24543,260 C1291.73129,260 1312.33837,243.833333 1333.06667,211.5 C1353.18887,179.166667 1373.49291,163 1393.97877,163 C1414.46463,163 1435.0717,179.166667 1455.8,211.5 C1475.92221,243.833333 1496.22624,260 1516.7121,260 C1537.19796,260 1557.80504,243.833333 1578.53333,211.5 C1598.65554,179.166667 1618.95957,163 1639.44543,163 C1659.93129,163 1680.53837,179.166667 1701.26667,211.5 C1721.38887,243.833333 1741.69291,260 1762.17877,260 C1782.66463,260 1803.2717,243.833333 1824,211.5" transform="matrix(1 0 0 -1 0 423)"/>
    <path stroke="#FFB6FF" stroke-width="20" d="M-17,358.5 C3.12220603,390.833333 23.4262389,407 43.9120988,407 C64.3979586,407 85.0050368,390.833333 105.733333,358.5 C125.855539,326.166667 146.159572,310 166.645432,310 C187.131292,310 207.73837,326.166667 228.466667,358.5 C248.588873,390.833333 268.892906,407 289.378765,407 C309.864625,407 330.471703,390.833333 351.2,358.5 C371.322206,326.166667 391.626239,310 412.112099,310 C432.597959,310 453.205037,326.166667 473.933333,358.5 C494.055539,390.833333 514.359572,407 534.845432,407 C555.331292,407 575.93837,390.833333 596.666667,358.5 C616.788873,326.166667 637.092906,310 657.578765,310 C678.064625,310 698.671703,326.166667 719.4,358.5 C739.522206,390.833333 759.826239,407 780.312099,407 C800.797959,407 821.405037,390.833333 842.133333,358.5 C862.255539,326.166667 882.559572,310 903.045432,310 C923.531292,310 944.13837,326.166667 964.866667,358.5 C984.988873,390.833333 1005.29291,407 1025.77877,407 C1046.26463,407 1066.8717,390.833333 1087.6,358.5 C1107.72221,326.166667 1128.02624,310 1148.5121,310 C1168.99796,310 1189.60504,326.166667 1210.33333,358.5 C1230.45554,390.833333 1250.75957,407 1271.24543,407 C1291.73129,407 1312.33837,390.833333 1333.06667,358.5 C1353.18887,326.166667 1373.49291,310 1393.97877,310 C1414.46463,310 1435.0717,326.166667 1455.8,358.5 C1475.92221,390.833333 1496.22624,407 1516.7121,407 C1537.19796,407 1557.80504,390.833333 1578.53333,358.5 C1598.65554,326.166667 1618.95957,310 1639.44543,310 C1659.93129,310 1680.53837,326.166667 1701.26667,358.5 C1721.38887,390.833333 1741.69291,407 1762.17877,407 C1782.66463,407 1803.2717,390.833333 1824,358.5" transform="matrix(1 0 0 -1 0 717)"/>
  </g>
</svg>
